<svg width="375" height="110" viewBox="0 0 375 110" fill="none" xmlns="http://www.w3.org/2000/svg">
<g clip-path="url(#clip0_51_91)">
<path d="M63.51 97.64H0V85.37L29.43 25.71H4.25V2.44H63.51V15.41L35.48 72.29H63.51V97.65V97.64Z" fill="#419FD7"/>
<path d="M130.79 97.64H73.27V2.44H130.79V28.49H101.83V39.83H125.5V60.24H101.83V70.36H130.79V97.64Z" fill="#F7A4C0"/>
<path d="M223.26 97.64H192.44L170.17 55.88V97.64H141.62V2.44H172.44L194.71 44.2V2.44H223.26V97.64Z" fill="#20CA73"/>
<path fill-rule="evenodd" clip-rule="evenodd" d="M331.37 109.04C324.47 109.04 318.56 108.08 313.63 106.16C308.71 104.24 304.46 101.7 300.89 98.54C297.32 95.38 294.18 91.87 291.47 88.01C288.76 84.15 286.24 80.23 283.91 76.23C282.01 73.13 280.1 70.14 278.18 67.27C276.26 64.4 274.18 61.8 271.93 59.48L265.24 68.26V97.63H236.74V2.44H265.24V27.04L282.63 2.44H315.2L286.35 40.47C290.77 43.96 294.58 47.91 297.78 52.3C300.98 56.7 303.88 61.11 306.47 65.53C308.8 69.41 311.12 72.96 313.45 76.17C315.78 79.39 318.32 81.99 321.07 83.96C323.82 85.94 327.04 86.93 330.72 86.93C333.71 86.93 336.44 86.24 338.92 84.87C341.4 83.49 343.39 81.46 344.88 78.76C346.37 76.07 347.12 72.76 347.12 68.84H371.95C371.95 76.87 370.29 83.89 366.98 89.92C363.66 95.95 358.97 100.64 352.91 103.99C346.84 107.34 339.66 109.02 331.36 109.02L331.37 109.04Z" fill="#FCD808"/>
<path d="M372.045 46.9162L371.439 47.7742C370.649 46.2478 366.583 43.0081 363.654 41.5605L362.132 41.6798L362.981 40.5249C363.616 39.6745 364.145 38.8014 364.576 37.9018C364.002 37.0816 363.348 36.4656 362.611 36.0574C361.197 40.5816 358.283 44.7392 355.43 48.4016C358.151 46.7348 360.396 44.4708 362.176 41.6096L362.721 41.5114C362.83 41.4055 363.552 40.4757 363.654 40.5249C366.236 41.7759 369.021 44.8072 371.115 46.6705C371.41 46.9313 372.56 45.6237 372.674 45.8485L371.727 48.1899C371.439 48.6382 370.378 50.2045 369.452 50.8962L369.085 51.2099C364.5 57 364.316 51.7919 361.87 51.5614L364.028 53.1564C365.805 54.8837 365.175 54.3129 362.989 54.3129L362.747 54.2714C362.5 56 362.966 57.7108 361.22 55.1709C360.347 53.5759 359.3 50.7412 361.22 54.3129C361.84 55.0348 370.5 51.2099 362.5 56.5C361.302 57.0556 359.549 57.9792 358.189 58.2626C356.344 59.9143 351.401 61.7701 351.397 61.7777C351.325 61.91 350 61.7801 350 62V62.5C349.709 59.4196 350.735 57.6957 351.268 61.7777L350.452 62.1178C350.365 62.2426 350.271 62.3597 350.161 62.458C349.496 63.0514 346.669 63.282 345.61 63.3462C345.463 63.3462 345.236 63.316 345.221 63.2102C345.002 61.9289 342.5 60 344.79 58.5423L345.142 58.2324C345.119 57.9527 345.3 57.7259 345.682 57.5558C345.433 57.2497 345.176 56.936 344.911 56.6109C344.866 57.0834 343.314 57.6239 343 57.2421H344.061L340.281 58.7729C339.854 58.6897 341 58.5 339.578 58.9845C340 58.5 339.774 58.9694 339.827 59.0148C340.039 59.1924 341.5 64 340.538 64.4688L340.19 64.7787C339.351 65.425 336.944 66.4039 335.908 66.3813C335.674 66.3775 335.473 66.2339 335.299 66.094C334.695 65.2814 334.596 64.2344 335.058 63.3311L335 63.451C335.877 63.2658 337.042 62.3635 337.802 61.9137C336.823 61.1956 335.669 60.0243 335 59L334.36 58.7804C334.053 55.4166 334.36 57.5275 334.36 58.7804H333.788L333.478 59.1735C332.011 58.9921 330.62 58.4705 329.297 57.6163C328.031 57.3744 326.837 56.9435 325.707 56.3275L325.506 55.7568L325 55.5C326.912 52.0228 327.483 52.6801 325.348 56.3275C323.636 58.5612 322.5 59 323.666 54.2373C323.42 54.328 323.15 54.0935 323.084 54.0521C323 54 322.683 53.8291 322.679 53.4928L322.668 53.0014L324.565 51.5916L320.551 51.6067L320 51.5L319.055 50.6732C317.83 49.7396 315.679 47.3183 315.396 45.8518C315.343 45.0392 317.15 44.9735 317.917 45.1133L318.146 44.7561C318.872 45.6594 319.833 46.7272 320.642 47.5285C320.381 46.3871 320.189 45.2305 320.075 44.0664V42.9369L319.901 41.7563L323 42.5C322.195 42.8553 321.492 42.6656 320.642 43.1872V43.2938C320.846 45.2478 320.079 42.1285 320 42C319.395 41.0551 320.041 34.0391 320.665 33.0601C320.672 33.0526 320.585 33.2075 320.517 33.2189C319.901 33.3134 317.671 32.5197 317.078 32.1568C316.447 31.7751 315.634 30.8302 315.294 30.1763C315.101 34.9537 315.63 39.6027 317.777 43.9795L318.5 45.5C318.893 45.878 316.239 45.926 315.925 46.0545C315.721 46.1376 316 46.5 315.396 45.9902C310.936 38.4272 311.114 26.8729 314.504 18.9357C315.744 16.0329 317.191 13.4704 318.9 10.8851C320.956 7.78205 323.382 5.33285 326.64 3.49973C329.467 1.90851 332.737 1.54189 335.844 2.60018C337.363 3.11799 338.773 3.52619 339.861 4.85662C340.115 5.16654 340.704 5.40088 341.124 5.21946C342.859 4.48244 344.62 4.56559 346.434 4.37282C349.515 4.044 352.357 4.61472 354.957 6.33823C356.836 7.58551 359.447 7.42298 361.742 9.49421C363.964 10.8209 365.578 12.7938 366.75 15.088C370.612 17.3445 372.245 21.5361 372.483 25.9393L372.797 28.7892C372.937 30.0553 372.952 31.2573 373.273 32.497C374.415 36.9418 374.5 43.5 372.041 46.8973L372.045 46.9162Z" fill="#EF6A22"/>
<path d="M335 63.5L335.5 66C332.59 66.4195 328.372 66.4342 326.263 64.2874C324.434 62.4202 323.485 59.9257 323.239 57.4538C323.368 57.1628 323.655 56.9473 324.097 56.8037C324.502 56.1839 324.917 55.8966 325.341 55.9458L325.772 56.2254C326.391 61.0331 328.652 64.1929 333.902 63.282L334.249 63.6675L335 63.5Z" fill="#EF6A22"/>
<path d="M368.092 51.9734C368.133 52.5252 367.664 52.7255 367.283 53.0392C366.727 53.4928 365.567 54.2468 365 54.5C364.475 53.6874 362.256 52.2257 361.5 51.5L369 51L368.092 51.9734Z" fill="#EF6A22"/>
<path d="M347.735 38.1702L348.185 38.0681C351.995 40.5135 354.769 35.0407 349.659 34.8819L349.353 34.5266C349.791 33.1849 350.211 31.7902 350.702 30.3728C350.865 30.0251 351.511 30.4635 351.798 30.5127C353.378 30.7886 355.117 31.4614 356.636 32.1795C357.422 32.5499 358.242 32.7729 358.93 33.3927C358.526 35.3014 357.498 36.8851 356.662 38.6389C354.931 42.2711 352.509 45.393 349.523 48.0955C348.99 48.5755 348.521 49.407 347.811 49.5204C347.308 49.5657 347.191 48.7456 346.998 48.4621C346.371 47.5323 345.754 46.6365 345.305 45.5291C346.337 43.1404 347.081 40.7025 347.739 38.1702H347.735Z" fill="white"/>
<path d="M318.473 28.9328C317.184 27.6288 319.184 22.1143 320.752 19.6954L323.647 15.2279L327.238 10.9342L329.963 8.36031L331.569 7.10548C332.333 6.5083 333.429 5.83175 334.408 5.7108C335.387 5.58985 336.181 6.56877 336.819 7.07524C336.532 7.71778 336.052 7.96345 335.523 8.26204C333.743 9.2712 332.106 10.4429 330.817 12.019C326.754 16.993 323.598 23.2331 321.822 29.4241C320.745 29.6925 319.369 29.8399 318.473 28.9328Z" fill="white"/>
<path d="M338.365 10.5336L337.5 11.5C336.774 11.9195 338.5 10 338.5 10.5C337.619 11.6188 339 13 339 12C339 13 337 11.5 339 12.5C339.276 13.494 338.599 13.5876 338.516 14.6534C337.567 16.9401 336.872 19.2116 336.271 21.623C335.061 23.3919 333.633 24.8924 331.902 26.1208C330.099 27.0354 328.507 28.0937 326.281 28.57C326.939 25.8524 328.073 23.3806 329.388 20.9956C330.223 19.4762 330.987 18.0173 332.03 16.6453C332.612 15.878 333.073 15.1145 333.735 14.3926C334.937 13.0773 337.359 10.0763 338.036 10.1632C338.164 10.1783 338.308 10.3673 338.365 10.5336Z" fill="white"/>
<path d="M333.41 44.5199C332.465 44.2176 332.242 43.5146 331.705 43.0081C330.658 42.0216 329.778 41.0238 329.041 39.837C328.659 39.2247 328.564 38.945 329.01 38.2987C330.636 35.9402 332.416 33.7216 334.982 32.1001C335.107 33.2075 335.273 34.194 335.319 35.2221C335.402 37.0816 333.618 41.466 333.41 44.5237V44.5199Z" fill="white"/>
<path d="M333.795 58.7842C333.935 60.4095 334.12 62.0385 334.256 63.6637C332.865 63.6108 331.471 63.8981 330.034 63.5125C326.769 62.6432 325.881 59.0526 325.348 55.942C325.401 55.8777 325.476 55.8323 325.514 55.7605C326.553 56.4484 327.657 56.8755 328.927 57.1136C330.299 57.3707 331.686 58.9656 333.795 58.7842Z" fill="white"/>
<path d="M331.868 47.8422C330.602 48.9307 329.041 49.1273 327.525 49.5279C326.867 48.3865 326.244 47.2677 326.217 45.9826L326.871 42.7926C327.196 42.6717 327.514 43.0723 327.514 43.4163C328.7 45.0755 330.095 46.4022 331.868 47.846V47.8422Z" fill="white"/>
<path d="M366.028 33.7896C365.159 33.1584 364.456 32.5385 363.473 32.0887L363.957 26.1698C364.025 25.3383 363.787 24.5408 364.089 23.6715C365.31 26.1056 365.805 28.7362 366.024 31.4726C366.085 32.221 366.414 32.8447 366.024 33.7896H366.028Z" fill="white"/>
<path d="M344.359 29.9495C344.847 31.7411 344.541 36.1973 342.923 38.1627C342.194 35.5207 342.292 32.7351 343.018 30.0667C343.124 29.6774 344.269 29.6094 344.363 29.9495H344.359Z" fill="white"/>
<path d="M354.395 54.4377C355.067 53.7158 355.714 52.9599 356.511 52.4572C358.484 51.2137 360.336 49.9626 362.12 48.4394C362.46 48.1484 362.933 48.0804 363.22 47.6193C363.114 48.3223 362.744 48.7456 362.317 49.2105C360.457 51.225 358.514 53.0808 356.197 54.5775C355.782 54.8459 355.033 54.759 354.395 54.4377Z" fill="#FEFDFE"/>
<path d="M344.59 13.5044C344.598 13.0811 344.435 12.4423 343.985 12.2231L343.895 10.9645L345.758 8.71559C346.525 9.21072 347.194 9.81546 347.583 10.7226L345.017 14.0033C344.688 13.837 344.654 13.6518 344.586 13.5006L344.59 13.5044Z" fill="white"/>
<path d="M321.035 14.4191C320.245 15.4736 319.822 16.5546 318.911 17.507C318.639 17.7905 318.775 18.588 317.966 18.6447C319.168 15.9045 320.771 13.3079 322.657 10.87C323.965 9.1843 325.397 7.63844 327.468 6.75023L323.9 10.5828L321.035 14.4191Z" fill="#FEFCFD"/>
<path d="M335.058 63.3349L334.699 59.389C334.672 59.1471 334.831 58.9392 335.039 58.9619C335.16 58.977 335.405 59.0375 335.504 59.1887C336.286 60.3603 337.307 61.0822 338.546 62.0007C337.36 62.7188 336.222 63.0439 335.058 63.3387V63.3349Z" fill="#FFFEFF"/>
<path d="M353.518 15.7117C353.121 15.8553 352.838 16.256 352.29 16.1728C352.097 15.5983 351.942 14.9898 351.953 14.3208C353.488 13.1756 355.646 13.0811 357.082 14.4228L353.522 15.7155L353.518 15.7117Z" fill="#FFFEFF"/>
<path d="M342.322 15.2203C342.031 16.0443 342.201 16.8909 342.878 17.4541C342.696 18.3082 342.277 19.0868 341.944 19.9637L341.109 22.1483C340.954 22.5528 340.103 22.5225 339.748 22.2353C340.901 20.0166 341.649 17.8698 341.71 15.4395C341.713 15.2732 341.918 15.1107 342.008 15.1069C342.099 15.1031 342.224 15.1712 342.326 15.2203H342.322Z" fill="#FFFEFE"/>
<path d="M336.853 55.2163C337.227 54.4263 338.165 54.1655 338.788 53.5683C339.805 52.6008 340.096 52.4231 342.103 53.4701C340.572 54.3583 338.913 55.2049 336.853 55.22V55.2163Z" fill="#FFFEFE"/>
<path d="M326.901 35.3241C326.334 34.3074 326.27 33.4305 326.009 32.2853L328.727 31.4122L326.901 35.3241Z" fill="#FFFDFE"/>
<path d="M348.725 25.0814C348.271 25.0814 347.818 25.0322 347.364 25.07L347.224 22.8287L349.038 21.3358C349.431 22.5868 348.664 23.8379 348.725 25.0851V25.0814Z" fill="#FFFEFF"/>
<path d="M333.104 51.5009C332.061 52.374 329.691 53.0997 328.984 52.083C330.87 51.7655 332.586 50.3632 333.142 50.6769C333.316 50.779 333.327 51.3119 333.104 51.5009Z" fill="#FEFCFD"/>
<path d="M337.805 43.8887C337.397 44.5426 336.826 44.9546 336.059 45.2494C336.086 43.9568 336.29 42.8418 336.679 41.5114C337.257 42.2408 337.34 42.9778 337.805 43.8925V43.8887Z" fill="#FEFDFD"/>
<path d="M338.815 38.2533C338.256 37.0703 338.002 35.634 338.925 34.4094C339.163 35.7058 339.046 36.9229 338.815 38.2533Z" fill="#FDF2F8"/>
<path d="M350.675 8.03523C350.445 8.43209 349.885 8.7458 349.477 8.5795C349.069 8.4132 348.778 7.84625 348.532 7.40404C349.39 7.40026 349.999 7.72909 350.675 8.03902V8.03523Z" fill="#FDF7FA"/>
<path d="M345.142 58.2399C345.093 57.7108 345.07 57.1703 344.911 56.6185C345.327 56.6752 346.102 57.0002 346.045 57.639C346.015 57.9867 345.353 58.187 345.142 58.2399Z" fill="#FDF8FB"/>
<path d="M334.99 28.1391C335.545 28.8497 334.339 29.8324 333.206 29.9231L334.99 28.1391Z" fill="#FBEAF2"/>
<path d="M348.184 18.3876C348.419 17.8547 348.77 17.4843 349.22 17.1177C349.341 17.4125 349.326 17.8056 349.163 18.0097C349.02 18.1873 348.725 18.4481 348.181 18.3876H348.184Z" fill="#F6D8E9"/>
<path d="M317.04 20.7612C317.097 19.9297 317.444 19.3288 317.974 18.7732C317.898 19.6274 317.554 20.1716 317.04 20.7612Z" fill="#EF6A22"/>
<path d="M345.39 63.2883C343.163 63.2559 341.985 63.9388 340 64.5L339 59.9425C341.856 60.1475 342.492 59.7086 345 58.5L345.39 63.2883Z" fill="#EF6A22"/>
</g>
<defs>
<clipPath id="clip0_51_91">
<rect width="374.23" height="109.04" fill="white"/>
</clipPath>
</defs>
</svg>
